<svg width="50" height="43" viewBox="0 0 50 43" fill="none" xmlns="http://www.w3.org/2000/svg">
<path d="M44.6523 0H5.32279C2.36568 0 0 2.3166 0 5.21235V37.6448C0 40.5405 2.36568 42.8571 5.32279 42.8571H44.6523C47.6094 42.8571 49.975 40.5405 49.975 37.6448V5.21235C50.2708 2.3166 47.9051 0 44.6523 0ZM44.6523 2.89575H44.948L26.6139 20.8494C25.7268 21.7182 23.9525 21.7182 23.0654 20.8494L4.73136 2.89575H5.02708H44.6523ZM47.3137 37.6448C47.3137 39.0927 46.1308 39.9614 44.948 39.9614H5.32279C3.84423 39.9614 2.9571 38.8031 2.9571 37.6448V5.21235V4.92278L21.2911 22.8765C22.474 24.0348 23.6568 24.3243 25.1354 24.3243C26.6139 24.3243 27.7968 23.7452 28.9796 22.8765L47.3137 4.92278V5.21235V37.6448Z" fill="white"/>
</svg>
