<svg width="50" height="50" viewBox="0 0 50 50" fill="none" xmlns="http://www.w3.org/2000/svg">
<path d="M49.0095 1.37931C48.4226 0.344828 47.5422 0 46.6618 0C46.0748 0 45.4879 0 44.901 0.344828L2.64123 19.3103C0.29347 20.3448 0 21.7241 0 22.7586C0 23.4483 0.29347 25.1724 2.64123 25.8621L11.4453 28.9655L16.1409 44.8276C16.7278 46.8965 18.1952 48.2759 19.956 48.2759C21.1299 48.2759 22.0103 47.5862 22.8907 46.8966L28.1731 41.0345L36.0968 48.6207C36.9773 49.3103 37.8577 50 38.7381 50C40.4989 50 41.9663 48.2759 42.5532 45.8621L49.8899 5.51724C50.1834 3.7931 49.8899 2.41379 49.0095 1.37931ZM14.38 28.2759L31.4013 18.2759L20.8364 31.3793C20.5429 31.3793 20.5429 31.7241 20.5429 32.069L18.4886 41.7241L14.38 28.2759ZM21.1299 44.1379C20.8364 44.4828 21.1299 44.1379 21.1299 44.1379L22.8907 35.5172L26.4123 38.6207L21.1299 44.1379ZM46.9552 4.82759L39.912 44.8276C39.912 45.1724 39.6185 46.2069 39.0315 46.2069C38.7381 46.2069 38.4446 45.8621 38.1511 45.8621L29.347 37.5862L24.0646 32.4138L39.325 13.4483C39.912 12.7586 39.912 12.069 39.325 11.3793C39.0315 10.3448 38.1511 10 37.5642 10.6897L12.3258 25.5172L3.52164 22.4138L45.7814 3.44828C46.0748 3.44828 46.3683 3.44828 46.6618 3.44828H46.9552C46.9552 3.7931 46.9552 4.13793 46.9552 4.82759Z" fill="white"/>
</svg>
